# xmcd
#
# Track frame offsets:
#	150
#	17608
#	35710
#	53250
#	73463
#	91200
#	111663
#	129675
#	146365
#	163775
#	178500
#	200250
#	219580
#	238625
#	256675
#	270925
#	292100
#	309625
#
# Disc length: 4340
#
# Revision: 2
# Processed by: cddbd v1.5.1PL0 Copyright (c) Steve Scherf et al.
# Submitted via: audiograbber 1.82.00
# Normalized: r1:DSETVAR1
#
DISCID=0910f212
DTITLE=Various Artist - R&B Love Songs CD I
DYEAR=1900
DGENRE=
TTITLE0=Craig David - Fill Me In
TTITLE1=Destiny's Child - Say My Name
TTITLE2=Mya - Case of the Ex
TTITLE3=Toni Braxton - Unbreak My Heart
TTITLE4=Macy Gray - I Try
TTITLE5=Brandy - Have You Ever-
TTITLE6=Donell Jones - U know whats up
TTITLE7=Brownstone - If You love me
TTITLE8=Kandi - Dont think I'm not
TTITLE9=Mary Mary - Shackles
TTITLE10=George Michael - Waiting for that day
TTITLE11=Will Smith - Just the two of us
TTITLE12=Jon B - Dont talk
TTITLE13=Ruffendz - No more
TTITLE14=Shai - If i ever fall in love
TTITLE15=Anastacia - Cowboys and kisses
TTITLE16=Groove Theory - Tell Me
TTITLE17=Martine Girault - Revival
EXTD=
EXTT0=
EXTT1=
EXTT2=
EXTT3=
EXTT4=
EXTT5=
EXTT6=
EXTT7=
EXTT8=
EXTT9=
EXTT10=
EXTT11=
EXTT12=
EXTT13=
EXTT14=
EXTT15=
EXTT16=
EXTT17=
PLAYORDER=
